# AST/ASF file generated using VICON BodyLanguage
# -----------------------------------------------
:version 1.10
:name VICON
:units
  mass 1.0
  length 0.45
  angle deg
:documentation
   .ast/.asf automatically generated from VICON data using
   VICON BodyBuilder and BodyLanguage model FoxedUp or BRILLIANT.MOD
:root
   order TX TY TZ RX RY RZ
   axis XYZ
   position 0 0 0  
   orientation 0 0 0 
:bonedata
  begin
     id 1 
     name lhipjoint
     direction 0.722297 -0.617336 0.311742 
     length 2.6635 
     axis 0 0 0  XYZ
  end
  begin
     id 2 
     name lfemur
     direction 0.34202 -0.939693 0  
     length 7.39349  
     axis 0 0 20  XYZ
    dof rx ry rz
    limits (-160.0 20.0)
           (-70.0 70.0)
           (-60.0 70.0)
  end
  begin
     id 3 
     name ltibia
     direction 0.34202 -0.939693 0   
     length 7.36294   
     axis 0 0 20   XYZ
    dof rx
    limits (-10.0 170.0)
  end
  begin
     id 4 
     name lfoot
     direction 0.104879 -0.288152 0.951824   
     length 2.16981   
     axis -90 7.62852e-016 20   XYZ
    dof rx rz
    limits (-45.0 90.0)
           (-70.0 20.0)
  end
  begin
     id 5 
     name ltoes
     direction 1.53586e-011 -4.21895e-011 1   
     length 1.08218   
     axis -90 7.62852e-016 20   XYZ
    dof rx
    limits (-90.0 20.0)
  end
  begin
     id 6 
     name rhipjoint
     direction -0.75102 -0.589393 0.297631   
     length 2.78977  
     axis 0 0 0  XYZ 
  end
  begin
     id 7 
     name rfemur
     direction -0.34202 -0.939693 0   
     length 7.46076   
     axis 0 0 -20   XYZ
    dof rx ry rz
    limits (-160.0 20.0)
           (-70.0 70.0)
           (-70.0 60.0)
  end
  begin
     id 8 
     name rtibia
     direction -0.34202 -0.939693 0   
     length 7.31726   
     axis 0 0 -20   XYZ
    dof rx
    limits (-10.0 170.0)
 end
 begin
     id 9 
     name rfoot
     direction -0.107991 -0.296704 0.948844   
     length 2.09388  
     axis -90 -7.62852e-016 -20   XYZ
    dof rx rz
    limits (-45.0 90.0)
           (-20.0 70.0)
  end
  begin
     id 10 
     name rtoes
     direction -1.53559e-011 -4.21911e-011 1   
     length 1.04433   
     axis -90 -7.62852e-016 -20   XYZ
    dof rx
    limits (-90.0 20.0)
  end
  begin
     id 11 
     name lowerback
     direction 0.0165164 0.98272 0.184358   
     length 1.71896   
     axis 0 0 0   XYZ
    dof rx ry rz
    limits (-20.0 45.0)
           (-30.0 30.0)
           (-30.0 30.0)
  end
  begin
     id 12 
     name upperback
     direction -0.00887249 0.992297 0.123566   
     length 1.71504   
     axis 0 0 0   XYZ
    dof rx ry rz
    limits (-20.0 45.0)
           (-30.0 30.0)
           (-30.0 30.0)
  end
  begin
     id 13 
     name thorax
     direction -0.0157026 0.998908 0.0440032   
     length 1.77022   
     axis 0 0 0   XYZ
    dof rx ry rz
    limits (-20.0 45.0)
           (-30.0 30.0)
           (-30.0 30.0)
  end
  begin
     id 14 
     name lowerneck
     direction -0.0238856 0.998137 0.0561411   
     length 1.89341   
     axis 0 0 0   XYZ
    dof rx ry rz
    limits (-20.0 45.0)
           (-30.0 30.0)
           (-30.0 30.0)
  end
  begin
     id 15 
     name upperneck
     direction 0.0276574 0.952253 -0.304056   
     length 1.86999   
     axis 0 0 0   XYZ
    dof rx ry rz
    limits (-20.0 45.0)
           (-30.0 30.0)
           (-30.0 30.0)
  end
  begin
     id 16
     name head
     direction 0.00800083 0.994258 -0.106712  
     length 1.91492  
     axis 0 0 0   XYZ
    dof rx ry rz
    limits (-20.0 45.0)
           (-30.0 30.0)
           (-30.0 30.0)
  end
  begin
     id 17 
     name lclavicle
     direction 0.97203 0.225407 0.06595  
     length 3.34889  
     axis 0 0 0   XYZ
    dof ry rz
    limits (-20.0 10.0)
           (0.0 20.0)
  end
  begin
     id 18 
     name lhumerus
     direction 1 -4.48973e-011 2.20267e-027   
     length 4.85645   
     axis 180 -30 -90   XYZ
    dof rx ry rz
    limits (-60.0 90.0)
           (-90.0 90.0)
           (-90.0 90.0)
  end
  begin
     id 19
     name lradius
     direction 1 -4.4897e-011 4.60472e-027   
     length 2.79874   
     axis 180 -30 -90   XYZ
    dof rx
    limits (-10.0 170.0)
  end
  begin
     id 20
     name lwrist
     direction 1 -4.48952e-011 1.14928e-026   
     length 1.39937   
     axis -6.29373e-015 90 90   XYZ
    dof ry
    limits (-180.0 0.0)
 end
  begin
     id 21 
     name lhand
     direction 1 -4.48967e-011 2.29886e-026   
     length 0.573398   
     axis -1.46689e-014 90 90   XYZ
    dof rx rz
    limits (-90.0 90.0)
           (-45.0 45.0)
  end
  begin
     id 22 
     name lfingers
     direction 1 -4.48955e-011 4.59726e-026   
     length 0.462289   
     axis -2.93383e-014 90 90   XYZ
    dof rx
    limits (0.0 90.0)
  end
  begin
     id 23
     name lthumb
     direction 0.707107 -6.34866e-011 0.707107   
     length 0.663757   
     axis -90 45 5.69224e-014   XYZ
    dof rx rz
    limits (-45.0 45.0)
           (-45.0 45.0)
  end
  begin
     id 24 
     name rclavicle
     direction -0.981571 0.157346 0.108443   
     length 3.35257  
     axis 0 0 0   XYZ 
    dof ry rz
    limits (-10.0 20.0)
           (-20.0 0.0)
  end
  begin
     id 25 
     name rhumerus
     direction -1 -4.48967e-011 8.58308e-029  
     length 4.67018   
     axis 180 30 90   XYZ
    dof rx ry rz
    limits (-90.0 60.0)
           (-90.0 90.0)
           (-90.0 90.0)
  end
  begin
     id 26 
     name rradius
     direction -1 -4.48958e-011 4.52548e-027   
     length 2.65534   
     axis 180 30 90   XYZ
    dof rx
    limits (-10.0 170.0)
  end
  begin
     id 27 
     name rwrist
     direction -1 -4.48977e-011 1.14952e-026   
     length 1.32767   
     axis -6.29373e-015 -90 -90   XYZ
    dof ry
    limits (-180.0 0.0)
  end
  begin
     id 28
     name rhand
     direction -1 -4.48924e-011 2.29804e-026   
     length 0.594069   
     axis -1.46689e-014 -90 -90   XYZ
    dof rx rz
    limits (-90.0 90.0)
           (-45.0 45.0)
  end
  begin
     id 29
     name rfingers
     direction -1 -4.48998e-011 4.59888e-026   
     length 0.478954   
     axis -2.93383e-014 -90 -90   XYZ
    dof rx
    limits (0.0 90.0)
  end
  begin
     id 30
     name rthumb
     direction -0.707107 -6.34933e-011 0.707107   
     length 0.687685   
     axis -90 -45 -5.69224e-014   XYZ
    dof rx rz
    limits (-45.0 45.0)
           (-45.0 45.0)
  end
:hierarchy
  begin
    root lhipjoint rhipjoint lowerback
    lhipjoint lfemur
    lfemur ltibia
    ltibia lfoot
    lfoot ltoes
    rhipjoint rfemur
    rfemur rtibia
    rtibia rfoot
    rfoot rtoes
    lowerback upperback
    upperback thorax
    thorax lowerneck lclavicle rclavicle
    lowerneck upperneck
    upperneck head
    lclavicle lhumerus
    lhumerus lradius
    lradius lwrist
    lwrist lhand lthumb
    lhand lfingers
    rclavicle rhumerus
    rhumerus rradius
    rradius rwrist
    rwrist rhand rthumb
    rhand rfingers
  end

#!OML:ASF E:\pregnant2\Project 1\Capture day 1\Session 1\pregnant2.ASF
:FULLY-SPECIFIED
:DEGREES
436
root 9.51629 2.27516 12.8826 -152.773 6.12339 81.6765
lowerback -16.4887 -1.35088 -4.83054
upperback -19.1048 -4.55047 -2.84327
thorax -12.0941 -3.29381 -0.447665
lowerneck -18.6157 0.244255 5.35059
upperneck 41.5262 3.86808 -6.3963
head 19.3604 2.49613 -2.92393
rclavicle 3.97569e-014 -5.96354e-014
rhumerus 75.2081 -11.8038 23.1616
rradius 30.5723
rwrist 22.0887
rhand 2.54245 -2.57771
rfingers 7.12502
rthumb 28.0233 -30.5053
lclavicle 3.97569e-014 -5.96354e-014
lhumerus -39.9411 -68.5824 122.024
lradius 88.0934
lwrist -1.97578
lhand -46.4906 46.1409
lfingers 7.12502
lthumb -19.2175 75.2114
rfemur -88.1888 7.70487 12.4229
rtibia 108.071
rfoot 14.5336 -9.42428
rtoes -9.33392
lfemur -78.8111 -7.34032 -39.8996
ltibia 94.6259
lfoot 17.5226 -7.67655
ltoes -8.14217
437
root 9.51888 2.27521 12.8846 -152.84 6.06967 81.6538
lowerback -16.3559 -1.36747 -4.85655
upperback -19.0974 -4.57118 -2.85438
thorax -12.1575 -3.29562 -0.439136
lowerneck -18.6162 0.212077 5.25732
upperneck 41.5116 3.9083 -6.49658
head 19.3574 2.48871 -2.94542
rclavicle 2.54444e-014 -5.88403e-014
rhumerus 75.1877 -11.8429 23.1337
rradius 30.5265
rwrist 21.993
rhand 2.59284 -2.54758
rfingers 7.12502
rthumb 28.0714 -30.4672
lclavicle 2.54444e-014 -5.88403e-014
lhumerus -39.9595 -68.6568 122.053
lradius 88.1091
lwrist -2.04933
lhand -46.4995 45.9183
lfingers 7.12502
lthumb -19.226 74.988
rfemur -88.1009 7.64476 12.4239
rtibia 108.06
rfoot 14.4871 -9.41733
rtoes -9.0954
lfemur -78.7294 -7.36575 -39.8949
ltibia 94.6131
lfoot 17.5165 -7.70014
ltoes -8.25781
438
root 9.52117 2.27591 12.886 -152.9 5.99394 81.6661
lowerback -16.2691 -1.38727 -4.84098
upperback -19.0788 -4.59019 -2.84959
thorax -12.1803 -3.29923 -0.439834
lowerneck -18.594 0.177321 5.07185
upperneck 41.4479 3.94617 -6.54023
head 19.312 2.46933 -2.92103
rclavicle -4.45278e-014 1.60618e-013
rhumerus 75.1576 -11.893 23.0264
rradius 30.5048
rwrist 22.0016
rhand 2.56794 -2.57836
rfingers 7.12502
rthumb 28.0476 -30.5019
lclavicle -4.45278e-014 1.60618e-013
lhumerus -39.903 -68.698 122.028
lradius 88.1136
lwrist -2.08745
lhand -46.4505 45.7046
lfingers 7.12502
lthumb -19.179 74.7789
rfemur -87.9948 7.59733 12.4781
rtibia 108.05
rfoot 14.4409 -9.41478
rtoes -9.04218
lfemur -78.6596 -7.39601 -39.845
ltibia 94.6175
lfoot 17.5209 -7.73906
ltoes -8.26667
439
root 9.52265 2.27674 12.8879 -152.977 5.91182 81.672
lowerback -16.1656 -1.3887 -4.82586
upperback -19.0368 -4.5851 -2.88268
thorax -12.1866 -3.29415 -0.480561
lowerneck -18.7252 0.0812707 4.8865
upperneck 41.5209 3.90433 -6.55941
head 19.388 2.42966 -2.9056
rclavicle 6.99722e-014 -2.08326e-013
rhumerus 75.0933 -11.8615 22.9413
rradius 30.4471
rwrist 22.04
rhand 2.59277 -2.59949
rfingers 7.12502
rthumb 28.0714 -30.5192
lclavicle 6.99722e-014 -2.08326e-013
lhumerus -39.8697 -68.8343 122.008
lradius 88.1271
lwrist -2.15054
lhand -46.4401 45.647
lfingers 7.12502
lthumb -19.1689 74.7223
rfemur -87.8623 7.53612 12.5464
rtibia 108.051
rfoot 14.4324 -9.37709
rtoes -9.35721
lfemur -78.5806 -7.43035 -39.8023
ltibia 94.6173
lfoot 17.5238 -7.7745
ltoes -8.35635
440
root 9.524 2.27741 12.8899 -153.025 5.83455 81.6902
lowerback -16.1084 -1.40817 -4.78825
upperback -19.0079 -4.60119 -2.88702
thorax -12.1817 -3.30014 -0.505781
lowerneck -18.7695 0.019989 4.69907
upperneck 41.5471 3.91194 -6.58063
head 19.4151 2.40629 -2.87883
rclavicle 5.24792e-014 2.8625e-014
rhumerus 74.972 -11.9446 22.9393
rradius 30.4822
rwrist 21.9011
rhand 2.55643 -2.60494
rfingers 7.12502
rthumb 28.0366 -30.5303
lclavicle 5.24792e-014 2.8625e-014
lhumerus -39.764 -68.8928 121.915
lradius 88.1297
lwrist -2.27505
lhand -46.4192 45.7277
lfingers 7.12502
lthumb -19.1488 74.805
rfemur -87.7932 7.48727 12.597
rtibia 108.039
rfoot 14.408 -9.3662
rtoes -9.38278
lfemur -78.5308 -7.46291 -39.7431
ltibia 94.6208
lfoot 17.543 -7.85172
ltoes -8.35064
441
root 9.52634 2.27772 12.8914 -153.107 5.78161 81.6919
lowerback -15.981 -1.41382 -4.79777
upperback -18.996 -4.60899 -2.89781
thorax -12.2372 -3.29791 -0.505602
lowerneck -18.7759 -0.0241743 4.58833
upperneck 41.5646 3.94448 -6.6657
head 19.433 2.39811 -2.89177
rclavicle -7.95139e-015 7.95139e-014
rhumerus 74.8769 -11.9702 22.9707
rradius 30.4965
rwrist 21.7681
rhand 2.57038 -2.57522
rfingers 7.12502
rthumb 28.05 -30.4984
lclavicle -7.95139e-015 7.95139e-014
lhumerus -39.8152 -68.9486 121.974
lradius 88.1505
lwrist -2.34134
lhand -46.3879 45.4206
lfingers 7.12502
lthumb -19.1188 74.5009
rfemur -87.6741 7.45657 12.6303
rtibia 108.032
rfoot 14.3971 -9.34361
rtoes -9.39424
lfemur -78.4332 -7.4715 -39.7086
ltibia 94.6116
lfoot 17.563 -7.90989
ltoes -8.40766
442
root 9.52877 2.27904 12.8933 -153.161 5.72728 81.7017
lowerback -15.9484 -1.4193 -4.73177
upperback -18.9537 -4.60984 -2.94329
thorax -12.2075 -3.30586 -0.592788
lowerneck -18.8163 -0.0394628 4.51366
upperneck 41.5753 3.98556 -6.72168
head 19.457 2.39858 -2.89621
rclavicle -5.24792e-014 9.85972e-014
rhumerus 74.8859 -12.0052 22.6827
rradius 30.4181
rwrist 21.9484
rhand 2.6173 -2.46521
rfingers 7.12502
rthumb 28.0948 -30.381
lclavicle -5.24792e-014 9.85972e-014
lhumerus -39.7261 -69.0097 121.84
lradius 88.1586
lwrist -2.4364
lhand -46.3345 45.5843
lfingers 7.12502
lthumb -19.0674 74.6696
rfemur -87.5896 7.41001 12.6635
rtibia 108.013
rfoot 14.3982 -9.30261
rtoes -9.43307
lfemur -78.3805 -7.49915 -39.6582
ltibia 94.6043
lfoot 17.5969 -7.9887
ltoes -8.42684
443
root 9.52946 2.28014 12.8941 -153.177 5.66757 81.7225
lowerback -15.9218 -1.40875 -4.68973
upperback -18.9355 -4.59788 -2.97943
thorax -12.2043 -3.30691 -0.654347
lowerneck -18.8555 -0.0941848 4.45717
upperneck 41.5857 3.98518 -6.828
head 19.4783 2.3822 -2.93696
rclavicle -5.08889e-014 5.56597e-015
rhumerus 74.758 -12.0012 22.7295
rradius 30.4209
rwrist 21.861
rhand 2.5571 -2.43808
rfingers 7.12502
rthumb 28.0373 -30.3633
lclavicle -5.08889e-014 5.56597e-015
lhumerus -39.7717 -69.0703 121.889
lradius 88.1422
lwrist -2.52075
lhand -46.3078 45.4453
lfingers 7.12502
lthumb -19.0418 74.5332
rfemur -87.5574 7.36579 12.7121
rtibia 108.008
rfoot 14.4068 -9.23903
rtoes -9.68123
lfemur -78.3625 -7.53419 -39.5918
ltibia 94.6031
lfoot 17.6055 -8.08437
ltoes -8.43005
444
root 9.52899 2.28129 12.8956 -153.211 5.61262 81.757
lowerback -15.8778 -1.42508 -4.64982
upperback -18.9237 -4.61404 -2.96614
thorax -12.2129 -3.3134 -0.661038
lowerneck -18.8801 -0.130487 4.29218
upperneck 41.6069 4.03368 -6.87555
head 19.5033 2.37466 -2.91859
rclavicle -2.38542e-014 2.46493e-014
rhumerus 74.742 -11.99 22.7889
rradius 30.4003
rwrist 21.7658
rhand 2.41938 -2.55959
rfingers 7.12502
rthumb 27.9056 -30.5063
lclavicle -2.38542e-014 2.46493e-014
lhumerus -39.6693 -69.0769 121.798
lradius 88.1486
lwrist -2.51734
lhand -46.3549 45.3033
lfingers 7.12502
lthumb -19.087 74.3867
rfemur -87.4982 7.33655 12.7859
rtibia 108.007
rfoot 14.4105 -9.24579
rtoes -9.6119
lfemur -78.3543 -7.55707 -39.515
ltibia 94.6127
lfoot 17.6191 -8.16043
ltoes -8.59649
445
root 9.5298 2.28187 12.8964 -153.247 5.5863 81.7428
lowerback -15.8978 -1.42466 -4.61563
upperback -18.8717 -4.60422 -3.02611
thorax -12.1422 -3.31613 -0.749722
lowerneck -18.9414 -0.221259 4.21137
upperneck 41.6076 3.97884 -6.96533
head 19.5175 2.33415 -2.95824
rclavicle 0 2.62396e-013
rhumerus 74.6497 -12.0423 22.7072
rradius 30.3919
rwrist 21.7787
rhand 2.50432 -2.5177
rfingers 7.12502
rthumb 27.9868 -30.4512
lclavicle 0 2.62396e-013
lhumerus -39.6108 -69.1859 121.7
lradius 88.1565
lwrist -2.55456
lhand -46.3367 45.3967
lfingers 7.12502
lthumb -19.0695 74.4819
rfemur -87.4492 7.30075 12.7831
rtibia 108.005
rfoot 14.3578 -9.24901
rtoes -9.50216
lfemur -78.3075 -7.57915 -39.4878
ltibia 94.6025
lfoot 17.6076 -8.23143
ltoes -8.66595
